<svg version="1.0" xmlns="http://www.w3.org/2000/svg" viewBox="610 264 200 140" preserveAspectRatio="xMidYMid meet">
<g transform="translate(0,774) scale(0.1,-0.1)" fill="currentColor" stroke="none">
<path d="M6863 4861 c-17 -11 -49 -21 -70 -23 -25 -2 -38 -8 -39 -18 -1 -8 -2
-20 -3 -26 -3 -30 -93 -44 -126 -20 -17 12 -24 12 -46 0 -31 -15 -39 -32 -39
-79 0 -37 -14 -47 -47 -34 -15 5 -23 17 -23 32 0 31 -18 47 -52 47 -21 0 -34
-9 -53 -39 -17 -24 -36 -41 -54 -44 -17 -4 -32 -16 -39 -32 -11 -24 -16 -26
-50 -20 -35 6 -39 3 -70 -36 -38 -50 -39 -57 -11 -68 35 -12 105 3 139 32 34
29 59 34 78 15 31 -31 0 -78 -53 -78 -27 0 -37 -6 -47 -27 -14 -30 -29 -32
-108 -18 -29 6 -39 2 -59 -19 -29 -31 -42 -32 -66 -6 -27 30 -52 24 -79 -18
-13 -20 -31 -43 -40 -51 -24 -20 -20 -50 8 -61 32 -12 40 -28 24 -47 -7 -9
-17 -30 -23 -47 -9 -27 -16 -32 -55 -39 -25 -4 -58 -9 -74 -10 -27 -2 -31 -7
-43 -55 -11 -41 -11 -57 -2 -68 13 -15 50 -10 86 12 30 19 59 18 67 -2 9 -22
-18 -51 -60 -64 -19 -6 -43 -25 -55 -41 -13 -19 -29 -30 -43 -28 -39 3 -46 -1
-46 -25 0 -13 -7 -40 -16 -61 -14 -34 -14 -39 1 -62 15 -22 15 -28 0 -68 -19
-49 -14 -65 21 -65 17 0 24 -5 24 -20 0 -30 26 -35 55 -12 31 25 51 20 59 -14
7 -28 34 -37 96 -32 42 3 45 5 74 61 27 52 34 58 58 55 21 -2 34 5 52 27 23
28 26 29 58 17 19 -6 52 -12 74 -13 64 -2 80 -10 163 -89 43 -41 100 -90 125
-108 26 -18 60 -52 76 -74 45 -62 41 -97 -30 -245 -59 -123 -89 -224 -77 -256
6 -17 125 -20 794 -22 118 0 122 5 63 92 -22 33 -40 67 -40 74 0 8 -11 50 -25
94 -16 52 -25 104 -25 149 l0 69 84 84 c77 76 86 83 123 83 22 0 46 6 52 14 6
8 38 24 70 36 42 15 74 38 117 81 52 53 62 58 89 53 26 -5 39 1 80 35 79 65
146 89 158 57 3 -8 -3 -26 -14 -39 -27 -35 -25 -57 5 -57 16 0 27 7 31 20 10
31 40 43 59 24 25 -25 22 -31 -29 -70 -20 -14 -20 -15 2 -30 18 -13 20 -19 11
-39 -15 -32 -5 -52 34 -68 18 -8 43 -24 56 -35 30 -27 50 -19 68 29 15 37 17
38 72 41 l57 3 3 36 c4 45 -18 69 -62 69 -41 0 -65 24 -49 48 8 13 22 16 55
14 56 -3 118 21 118 47 0 29 -11 51 -25 51 -19 0 -46 36 -39 53 3 8 12 18 20
21 16 6 19 49 4 76 -9 16 -15 18 -37 9 -15 -5 -32 -8 -40 -5 -22 9 -15 36 13
46 32 12 29 22 -16 52 -44 30 -48 64 -7 61 40 -3 57 35 33 72 -12 19 -23 24
-34 20 -9 -4 -31 -11 -48 -15 -17 -4 -41 -17 -53 -29 -29 -29 -42 -18 -35 30
6 34 4 39 -13 39 -11 0 -32 -14 -48 -30 -32 -33 -68 -37 -73 -8 -2 10 10 30
28 47 29 26 31 31 20 52 -11 19 -10 28 6 57 19 35 14 55 -19 76 -12 8 -24 6
-46 -7 -32 -19 -44 -12 -54 33 -4 16 -17 29 -35 36 -20 8 -31 20 -35 41 -7 35
-30 48 -59 32 -26 -14 -48 -5 -48 21 0 12 -15 29 -40 45 -48 30 -56 31 -72 5
-7 -11 -17 -20 -23 -20 -14 0 -55 66 -55 89 0 21 -35 51 -58 51 -7 0 -32 -9
-54 -20 -56 -27 -63 -26 -87 15 -24 42 -43 44 -93 8 -47 -32 -67 -22 -50 25
12 34 0 62 -27 62 -10 0 -36 -7 -57 -16 -22 -9 -61 -19 -89 -23 -45 -5 -50 -9
-58 -38 -11 -37 -32 -49 -49 -27 -7 9 -20 22 -28 30 -19 18 -83 74 -84 74 -1
0 -15 -9 -33 -19z m55 -148 c4 -25 -61 -113 -82 -113 -19 0 -43 23 -51 47 -9
33 58 95 100 91 22 -2 31 -9 33 -25z m331 -9 c5 3 22 -1 37 -9 16 -8 35 -15
42 -15 38 0 240 -56 261 -71 13 -11 32 -19 42 -19 11 0 19 -6 19 -14 0 -15 21
-26 51 -26 10 0 19 -3 19 -7 0 -5 18 -17 40 -27 22 -10 48 -27 59 -37 11 -10
31 -21 45 -25 15 -3 26 -14 28 -27 2 -13 9 -21 18 -20 20 3 100 -135 100 -174
0 -10 6 -14 20 -10 15 4 20 0 20 -13 0 -10 19 -33 43 -51 23 -18 55 -46 71
-61 17 -15 33 -28 38 -28 4 0 8 -5 8 -10 0 -6 11 -28 25 -50 36 -57 49 -123
31 -163 -8 -18 -16 -39 -19 -48 -3 -9 -18 -19 -34 -22 -22 -5 -32 -1 -46 19
-10 13 -23 24 -28 24 -6 0 -22 11 -37 25 -15 14 -38 28 -52 32 -14 3 -29 8
-35 12 -13 7 -65 2 -90 -9 -31 -13 -78 -23 -100 -21 -39 4 -85 23 -85 34 0 6
-25 35 -55 63 -30 29 -55 57 -55 62 0 17 -20 25 -34 13 -16 -13 -42 11 -31 28
15 24 -44 21 -101 -5 -32 -16 -65 -27 -73 -25 -8 1 -17 -2 -21 -8 -9 -16 -76
19 -123 63 -32 30 -46 36 -82 36 -24 0 -47 5 -50 10 -3 6 -17 7 -31 4 -15 -4
-31 -1 -42 8 -9 8 -28 15 -41 16 -13 0 -27 5 -30 10 -11 16 -99 7 -120 -12
-12 -11 -29 -16 -40 -13 -11 3 -25 -1 -32 -9 -6 -8 -20 -14 -30 -14 -23 0 -99
-46 -99 -60 0 -6 -5 -10 -12 -10 -6 0 -29 -17 -51 -37 -115 -112 -137 -137
-137 -154 0 -10 -7 -19 -15 -19 -8 0 -15 -8 -15 -18 0 -41 -57 -52 -196 -37
-80 9 -164 -10 -201 -45 -12 -11 -26 -20 -30 -19 -20 3 -34 -2 -52 -20 -17
-17 -25 -18 -60 -9 -23 6 -41 16 -41 23 0 8 -6 15 -12 18 -10 3 -10 7 0 20 7
8 12 22 10 30 -4 18 43 96 57 97 19 1 57 101 51 132 -7 34 9 68 54 118 23 26
30 41 25 59 -5 21 -4 23 9 12 14 -12 16 -10 16 8 0 11 5 21 11 21 6 0 9 9 6
19 -3 14 2 21 17 24 64 15 204 87 214 110 2 4 16 7 31 7 14 0 34 9 44 20 23
28 22 37 -3 15 -11 -10 -23 -16 -26 -13 -8 8 46 59 56 53 14 -9 59 82 47 94
-8 8 -2 11 22 11 18 0 61 12 97 26 67 26 104 32 142 20 13 -5 22 -3 22 3 0 6
5 11 10 11 6 0 10 -10 10 -21 0 -16 5 -20 19 -16 12 3 27 -3 36 -13 16 -18 47
-17 71 2 6 4 19 6 28 2 11 -4 19 2 26 20 5 14 13 26 18 26 5 0 14 11 20 25 9
20 16 24 40 19 18 -4 41 0 60 10 40 21 132 35 155 24 9 -5 21 -6 26 -4z m-324
-574 c23 -9 26 -15 23 -48 l-3 -37 43 -3 c38 -3 44 -7 57 -39 15 -35 15 -35
41 -18 14 9 32 14 41 11 23 -9 33 2 23 29 -6 16 -5 27 4 34 17 14 36 6 57 -22
30 -41 31 -62 4 -101 -24 -35 -25 -41 -13 -73 13 -35 12 -37 -17 -57 -53 -38
-126 -110 -141 -138 -16 -32 -50 -37 -58 -10 -3 10 3 43 14 75 28 78 26 130
-4 159 -40 38 -126 175 -126 200 0 13 5 29 12 36 14 14 11 14 43 2z m-92 -179
c26 -51 47 -106 47 -122 0 -32 -112 -212 -136 -217 -7 -2 -50 15 -95 37 -45
23 -92 41 -105 41 -36 0 -48 32 -24 63 25 32 25 52 0 77 -43 43 -12 61 64 35
68 -23 102 -13 130 40 l20 38 -22 15 c-45 30 -14 95 42 90 28 -3 36 -12 79
-97z m745 38 c2 -14 -4 -31 -12 -39 -25 -20 -19 -49 15 -81 27 -25 39 -29 90
-29 32 0 60 -4 61 -10 0 -5 1 -14 2 -20 1 -5 -32 -26 -72 -45 -65 -31 -83 -35
-153 -35 -62 0 -90 -5 -134 -25 -51 -22 -85 -24 -85 -5 0 4 16 42 36 84 30 64
47 84 100 126 35 28 64 55 64 60 0 20 42 51 63 48 15 -2 23 -11 25 -29z m-302
-335 c-4 -9 0 -21 9 -28 8 -6 18 -26 21 -43 5 -27 3 -33 -10 -33 -9 0 -20 -10
-25 -23 -5 -13 -16 -29 -25 -36 -9 -7 -16 -22 -16 -32 0 -11 -4 -19 -8 -19 -5
0 -22 -25 -37 -56 -25 -49 -28 -67 -27 -138 1 -44 6 -95 11 -113 11 -36 -1
-102 -20 -114 -24 -14 -162 -22 -279 -15 -138 8 -168 13 -179 35 -8 14 2 73
22 121 3 8 12 44 21 80 15 65 11 118 -13 181 -5 15 -7 36 -4 48 3 12 1 21 -6
21 -6 0 -11 5 -11 11 0 6 8 8 19 4 10 -3 24 1 31 10 7 8 18 15 25 15 6 0 31
18 53 40 23 21 48 37 55 34 8 -3 20 2 27 11 16 19 40 19 67 0 12 -8 28 -12 36
-9 9 3 24 1 34 -4 21 -11 50 -2 78 25 11 11 45 24 75 30 80 15 83 15 76 -3z"/>
</g>
</svg>
