<svg version="1.1" xmlns="http://www.w3.org/2000/svg" viewBox="348 175 174 126">
<path fill="#000000" opacity="1.000000" stroke="none"
	d="
M449.871765,284.097351
	C450.965546,288.021576 452.110352,291.453217 453.993866,294.668579
	C456.149384,298.348236 455.336517,299.768860 451.081604,300.117615
	C445.080109,300.609467 439.115479,299.582184 433.131470,299.463226
	C423.806274,299.277802 414.475189,299.410461 405.147186,299.334717
	C399.956390,299.292603 399.000977,298.071564 400.016083,292.980011
	C401.070831,287.689819 403.738434,283.021179 405.865753,278.148590
	C408.662842,271.741882 408.347687,269.484283 403.343933,264.904175
	C399.177856,261.090759 394.721619,257.592926 390.580414,253.754089
	C386.014191,249.521240 372.758789,250.922592 369.475983,257.259491
	C368.673615,258.808319 367.693024,259.949371 365.777679,260.208527
	C360.927032,260.864807 356.885773,257.896637 352.324768,257.107391
	C349.984009,256.702393 346.577820,253.738876 348.849762,249.383667
	C349.884125,247.400864 347.877045,245.238647 348.404480,242.679108
	C349.729279,236.250305 355.935547,235.083771 359.555084,231.045883
	C357.130402,230.552567 353.389404,232.959198 352.852203,228.521820
	C352.377594,224.601410 354.045746,222.105392 358.365723,221.143585
	C364.065796,219.874481 364.186707,218.994461 362.330902,213.008209
	C361.212067,209.399338 365.060486,208.029236 366.240326,205.410675
	C367.003815,203.716171 368.826721,203.097717 370.483490,204.195236
	C372.356812,205.436142 373.948883,205.291489 375.402405,203.817322
	C377.683197,201.504059 380.552887,204.047409 382.855865,202.987854
	C383.321655,201.619736 382.522034,201.345490 381.705597,201.087830
	C379.795349,200.484970 376.527924,201.240158 376.742554,198.224594
	C376.938812,195.467209 378.835144,192.667755 381.829010,192.129807
	C385.389282,191.490051 388.006470,189.403854 390.216583,187.131271
	C393.821747,183.424194 396.809113,182.991440 400.274597,187.935745
	C402.454376,183.392609 404.918762,180.062302 410.296204,182.379807
	C411.131287,182.739716 412.884521,181.742615 413.836548,180.931137
	C419.705719,175.928528 422.604126,175.505615 429.359528,179.128662
	C430.900879,179.955307 431.926880,180.073639 433.789276,179.213181
	C437.348541,177.568726 441.334290,176.776566 445.203430,175.896042
	C448.289642,175.193695 449.131409,177.596924 449.860107,180.195297
	C452.940277,179.405746 456.062805,178.365494 458.319824,181.803207
	C459.043182,182.904938 460.374603,182.586838 461.527771,182.107941
	C466.091827,180.212601 469.291718,181.315506 470.785034,186.296783
	C470.959625,186.879166 471.578308,187.328400 471.995605,187.844925
	C473.793579,188.107452 475.578461,185.907150 477.177338,187.699326
	C480.638214,191.578583 486.290833,192.115402 489.665283,196.449646
	C491.330872,198.589020 492.940247,202.354980 497.343384,201.297150
	C498.588470,200.998016 500.581238,202.928497 500.147400,204.232330
	C499.076660,207.450073 500.725922,210.731262 499.242584,214.325089
	C501.752991,213.074860 503.975189,211.826309 505.598328,215.201920
	C506.289276,216.638885 507.968597,214.936417 509.242157,214.989975
	C511.327087,215.077667 513.671082,214.195862 514.836548,216.940872
	C515.903625,219.454132 514.612610,220.993332 512.215820,222.484238
	C515.927612,224.551163 515.346619,229.136948 518.537720,231.521820
	C519.633728,232.340897 519.371216,234.325455 518.543579,235.738678
	C517.936584,236.775101 517.585327,237.629486 518.297913,238.928772
	C521.338867,244.473251 520.615173,245.888428 514.311584,247.314011
	C513.830872,247.422714 513.338745,247.480652 512.678345,247.591248
	C512.876892,249.112473 514.401978,248.792191 515.132324,249.451172
	C516.465393,250.654037 517.901733,252.796280 516.914856,253.691605
	C513.523865,256.768066 509.903961,260.483978 505.763184,261.515930
	C503.180176,262.159637 498.279327,259.804138 497.697876,255.025009
	C497.417419,252.719803 495.013306,250.393631 498.870270,247.593216
	C492.616852,250.020447 492.071228,249.638977 491.752899,242.879456
	C486.156250,248.454041 478.179718,248.572601 473.066559,254.211655
	C470.216827,257.354492 465.853912,258.281891 462.139801,260.081940
	C445.963837,267.921631 446.545898,272.376373 449.871765,284.097351
M410.338562,250.924423
	C412.006226,251.408447 413.518341,252.898651 415.447906,251.584915
	C422.154053,247.019135 423.309692,236.248978 417.736908,230.215271
	C416.906616,229.316254 416.045868,228.484634 414.757996,229.183945
	C413.543884,229.843201 413.381775,230.847214 413.952393,232.138000
	C415.953705,236.665375 412.904327,238.609451 409.510468,239.888779
	C407.932129,240.483734 405.943542,239.990433 403.500366,239.990433
	C404.839508,242.756546 402.487946,244.817169 402.988831,247.598328
	C405.178925,248.595566 407.424652,249.618134 410.338562,250.924423
M434.530701,232.458847
	C432.239471,230.841187 430.501770,227.832718 426.444550,229.650955
	C429.963776,235.135864 435.591125,239.977188 431.779236,248.208801
	C439.283325,244.122101 443.174011,239.232864 442.372375,231.247025
	C440.098755,232.668732 437.476166,231.215332 434.530701,232.458847
M452.722168,246.867386
	C458.365814,244.442047 465.510773,248.206055 470.735443,242.424835
	C466.189453,240.448914 462.843170,237.673431 463.013428,232.280029
	C460.407928,234.342010 457.920959,236.010086 455.807129,238.062500
	C453.409637,240.390259 450.745789,242.811340 452.722168,246.867386
z"/>
</svg>
