<svg version="1.0" xmlns="http://www.w3.org/2000/svg" viewBox="350 264 230 140" preserveAspectRatio="xMidYMid meet">
<g transform="translate(0,774) scale(0.1,-0.1)" fill="currentColor" stroke="none">
<path d="M4085 4803 c-87 -14 -217 -54 -280 -85 -252 -125 -435 -364 -495
-648 -8 -36 -11 -110 -7 -205 4 -127 9 -163 32 -235 36 -113 83 -201 150 -280
30 -35 55 -68 55 -72 0 -8 -27 -46 -110 -153 -14 -18 -38 -50 -55 -71 -16 -22
-54 -67 -83 -101 -30 -34 -52 -68 -50 -74 3 -9 61 -11 218 -10 118 1 217 4
221 7 4 2 22 48 39 102 18 53 38 102 44 109 9 10 22 7 61 -11 123 -58 279 -96
393 -96 89 0 235 34 343 80 74 32 95 38 104 28 6 -7 26 -59 44 -115 l33 -103
198 0 c109 0 204 -2 212 -5 7 -3 20 -1 28 5 13 8 12 12 -5 34 -183 229 -285
361 -285 371 0 6 25 42 55 80 88 111 154 267 175 412 14 100 3 282 -22 373
-23 85 -77 205 -119 266 -111 162 -281 295 -442 346 -199 63 -307 75 -452 51z
m243 -66 c23 -28 -3 -36 -122 -38 -123 -1 -151 6 -126 36 17 20 232 22 248 2z
m-380 -79 c18 -18 16 -23 -30 -76 -24 -27 -52 -61 -63 -76 -13 -18 -25 -25
-35 -21 -20 9 -80 91 -80 110 0 25 58 56 122 64 35 5 65 9 69 10 3 0 10 -4 17
-11z m392 -6 c0 -9 -18 -39 -40 -66 -22 -27 -48 -62 -57 -77 -23 -39 -47 -36
-75 9 -12 20 -38 54 -56 74 -52 57 -41 67 80 71 57 1 113 4 126 5 15 1 22 -3
22 -16z m254 3 c56 -8 98 -41 90 -72 -9 -32 -79 -107 -92 -99 -11 6 -57 64
-111 137 -21 29 -7 49 31 44 18 -3 55 -7 82 -10z m-544 -55 c0 -4 23 -37 50
-74 28 -37 52 -73 53 -79 1 -7 -39 -11 -130 -12 -105 -1 -133 1 -133 12 0 11
41 67 111 150 17 21 49 23 49 3z m384 -8 c8 -16 36 -54 61 -85 25 -32 44 -61
41 -65 -8 -13 -259 -8 -263 4 -2 6 13 31 33 55 20 24 48 61 62 82 30 44 46 47
66 9z m-707 -91 c46 -60 35 -71 -69 -69 -99 2 -107 13 -47 74 53 54 72 54 116
-5z m1093 3 c44 -44 44 -46 25 -60 -28 -21 -168 -16 -173 6 -4 24 59 100 83
100 12 0 41 -20 65 -46z m-1057 -121 c-3 -16 -123 -173 -132 -173 -5 0 -32 33
-61 73 -30 39 -58 77 -63 84 -5 7 -6 16 -3 21 8 13 262 8 259 -5z m387 1 c0
-6 -19 -36 -42 -67 -24 -31 -51 -67 -61 -81 -22 -32 -37 -26 -75 32 -17 26
-43 60 -57 76 -44 51 -44 51 109 51 83 0 126 -4 126 -11z m383 -2 c-2 -8 -80
-118 -114 -159 -14 -18 -27 -16 -39 7 -6 10 -33 49 -61 85 -27 36 -48 69 -45
73 7 11 261 6 259 -6z m392 7 c3 -3 -18 -37 -46 -75 -28 -38 -55 -77 -60 -86
-13 -24 -36 -23 -49 2 -6 10 -33 49 -61 85 -27 36 -48 69 -45 73 5 9 252 9
261 1z m-1046 -76 c19 -7 18 -149 -1 -164 -9 -8 -52 -11 -127 -9 l-114 3 -3
79 c-2 44 -1 84 1 90 5 11 216 12 244 1z m591 6 c10 -1 12 -23 10 -88 l-3 -88
-125 0 -125 0 -3 84 c-2 46 1 87 7 90 7 5 171 6 239 2z m-598 -341 c17 -10 27
-146 12 -168 -10 -15 -237 -23 -252 -8 -8 8 -4 144 6 174 4 15 210 17 234 2z
m598 -2 c17 -17 16 -178 0 -179 -7 0 -64 -1 -127 -1 -120 0 -136 6 -126 47 2
11 5 46 5 77 l0 57 108 4 c59 1 112 4 118 5 5 1 15 -3 22 -10z m-953 -137 c7
-25 107 -116 148 -138 46 -24 157 -20 207 6 49 25 97 27 145 4 31 -15 38 -15
61 -2 40 21 143 19 155 -3 15 -27 165 -25 219 2 22 11 40 25 40 30 0 6 9 10
20 10 11 0 20 7 20 15 0 7 6 18 13 22 7 4 23 23 36 41 17 25 30 32 54 32 42 0
95 -33 107 -68 6 -15 15 -35 20 -44 6 -10 10 -58 10 -107 0 -81 -3 -93 -24
-118 l-24 -28 -656 -3 -656 -3 -35 28 -35 28 3 112 c3 84 8 118 21 138 38 58
137 88 151 46z"/>
</g>
</svg>
