<svg version="1.1" xmlns="http://www.w3.org/2000/svg" viewBox="199 167 122 134">
<path fill="#000000" opacity="1.000000" stroke="none"
	d="
M313.693695,300.199127
	C307.743011,300.196503 302.240479,300.004669 296.757477,300.249756
	C292.958740,300.419525 290.721161,299.025421 289.885986,295.340088
	C289.776123,294.855286 289.598389,294.383423 289.424103,293.915985
	C286.714691,286.649414 286.663788,286.527649 279.688568,289.372925
	C265.647675,295.100342 251.682465,294.355103 237.898438,288.787445
	C234.028763,287.224365 232.456146,287.779785 230.950562,291.757294
	C227.327225,301.329559 229.289597,300.141266 218.648972,300.201599
	C212.585968,300.235992 206.522644,300.207794 199.487701,300.207794
	C201.939667,293.946106 205.942612,290.320038 208.799332,285.991791
	C211.260483,282.262909 215.717834,279.235565 216.229416,274.994781
	C216.764023,270.563263 212.068115,267.382782 209.742432,263.614136
	C198.869644,245.995361 200.880569,219.757935 214.586884,202.028290
	C241.471222,167.252365 295.494324,174.111572 312.247742,214.823959
	C319.800568,233.178070 317.913788,251.375366 306.659729,268.117432
	C302.251221,274.675720 302.099823,274.578094 306.932556,281.099335
	C310.500153,285.913422 314.082489,290.716553 317.644318,295.534882
	C318.411804,296.573120 319.554382,297.462952 319.175507,299.130585
	C317.849854,300.850433 315.857849,299.918396 313.693695,300.199127
M256.970459,275.631317
	C255.572983,277.729370 253.457581,279.428772 252.944916,282.299133
	C257.510468,282.299133 261.705566,282.299133 266.965607,282.299133
	C264.599091,279.318237 262.795349,277.034210 260.978027,274.760986
	C259.604828,273.043304 258.466034,273.743683 256.970459,275.631317
M278.692505,222.291794
	C277.904327,222.450577 276.577667,222.747040 277.233459,223.628510
	C279.198486,226.269745 280.340149,229.760498 283.954895,231.184860
	C286.195465,228.399399 288.525024,225.997284 289.750305,222.258698
	C285.985687,222.258698 282.709503,222.258698 278.692505,222.291794
M221.132706,234.866837
	C224.022263,234.866837 226.911819,234.866837 230.511230,234.866837
	C228.624283,230.867569 226.786133,228.133530 223.957245,225.615463
	C221.358444,228.349991 218.892700,230.837006 217.452789,234.088623
	C218.386978,235.123001 219.429169,234.764343 221.132706,234.866837
M268.690216,260.381042
	C267.795959,262.445587 265.272888,263.565277 265.186676,266.467560
	C269.290863,267.060822 273.237152,267.447266 277.170776,266.135742
	C276.937714,263.201202 274.755463,261.839813 273.622955,259.857849
	C272.105286,257.201782 270.606262,257.913605 268.690216,260.381042
M300.148407,231.143921
	C298.532928,229.417572 297.819519,226.825653 295.259308,225.764801
	C292.617798,228.245911 290.512573,230.828613 289.040344,234.410980
	C293.573608,235.046356 297.634094,235.188416 302.052948,234.157043
	C301.384186,233.051498 300.965027,232.358566 300.148407,231.143921
M240.535660,226.142670
	C241.121323,225.073914 242.582535,224.271912 241.495331,222.532928
	C237.717026,222.252441 233.857681,221.848358 229.683884,222.756241
	C231.160355,226.509140 233.388641,228.987473 235.803238,231.276321
	C238.048508,230.083023 238.920517,228.235977 240.535660,226.142670
M290.867950,266.876709
	C294.441681,266.876709 298.015411,266.876709 301.936218,266.876709
	C299.721680,262.199036 298.513672,260.599487 295.473297,258.018158
	C291.028442,261.946960 289.922333,263.786591 290.867950,266.876709
M276.182800,199.245560
	C274.497772,197.563568 273.837860,194.910355 271.253326,193.767883
	C268.928467,196.490250 266.350128,198.747971 264.809631,202.797195
	C268.618500,202.797195 271.866791,202.848969 275.112488,202.779343
	C277.351013,202.731339 277.550903,201.525436 276.182800,199.245560
M268.312592,228.905365
	C267.458740,230.769150 265.224457,231.937881 265.442963,234.598068
	C269.408325,234.777054 273.279480,235.411636 277.376923,234.121078
	C276.257935,230.562744 274.059082,228.214340 271.981506,225.944855
	C270.149078,226.104904 269.571777,227.421112 268.312592,228.905365
M245.935028,202.873505
	C248.616943,202.623047 251.424896,203.401352 254.554276,202.033600
	C252.598282,198.931824 250.844406,196.264557 248.285721,193.844742
	C245.281906,195.996521 243.448883,198.786057 241.873291,201.696533
	C242.787872,203.162628 244.044128,202.756149 245.935028,202.873505
M261.694977,228.882462
	C263.088257,227.017197 265.300232,225.566803 265.050964,222.593048
	C260.963135,222.168686 257.129242,221.936890 252.528992,222.808777
	C254.370422,225.399002 255.849640,227.507217 257.358429,229.594040
	C258.766968,231.542252 260.054138,230.926971 261.694977,228.882462
M242.296036,234.343048
	C246.185776,235.165436 250.047272,235.073242 254.319733,234.241013
	C252.687149,230.741928 250.726944,228.074753 247.867310,225.577850
	C245.554214,228.311325 243.114868,230.532516 242.296036,234.343048
M260.901550,197.972229
	C262.546295,195.613907 264.954224,193.727142 266.063965,190.139130
	C261.588409,190.731110 257.619629,189.292099 253.434525,191.679871
	C255.782608,194.247833 255.514481,198.873993 260.901550,197.972229
M246.823151,266.909882
	C249.198395,266.759003 251.667084,267.324982 254.262100,266.212250
	C252.737946,262.729065 250.453079,260.305054 248.097046,257.617157
	C245.277878,260.131042 243.379562,262.840332 242.070602,265.909668
	C243.366364,267.290649 244.762558,266.749084 246.823151,266.909882
M277.015747,248.994995
	C276.776306,249.771973 277.109711,250.479996 277.827728,250.456680
	C281.705902,250.330780 285.579895,250.077530 290.071869,249.834885
	C287.858032,246.412476 286.532898,243.373703 283.423004,241.705215
	C280.630066,243.445770 279.216553,246.168701 277.015747,248.994995
M229.206879,264.032471
	C227.631439,261.968475 226.514542,259.507294 223.847336,257.819336
	C221.562820,260.381989 218.971954,262.581146 217.815247,266.838989
	C221.596512,266.838989 224.849960,266.864716 228.102722,266.827637
	C229.621918,266.810333 230.244751,266.098938 229.206879,264.032471
M255.849426,245.321167
	C255.017365,246.960648 253.020996,247.954147 252.879028,250.034668
	C257.349091,250.034668 261.514893,250.034668 266.528839,250.034668
	C263.919800,246.734268 262.250519,243.778687 259.591034,241.715134
	C257.738251,242.184891 257.202362,243.705185 255.849426,245.321167
M272.621735,278.626251
	C274.458130,276.565399 276.478821,274.608490 276.914642,271.333954
	C272.801514,271.138550 269.018616,269.951996 264.022125,271.309875
	C267.589966,273.830566 267.645203,278.403259 272.621735,278.626251
M289.024597,216.816528
	C288.089508,213.692581 286.039673,211.425186 283.431458,209.242935
	C280.714081,211.818039 278.543549,214.479538 276.816559,218.279816
	C281.198151,217.703415 285.013092,218.670883 289.024597,216.816528
M225.708679,206.796585
	C223.127075,206.443649 220.548309,206.131943 217.591690,207.381577
	C219.327408,210.518616 221.332901,213.152359 224.013702,215.651947
	C226.572830,213.267624 228.650925,210.907379 229.893448,208.001511
	C228.741013,206.741150 227.507584,207.075699 225.708679,206.796585
M233.440491,211.988708
	C232.128372,213.810913 230.358383,215.363846 229.629578,218.050568
	C233.933548,217.844910 237.852325,218.466385 242.508240,217.306259
	C240.734024,214.797012 239.345657,212.615036 237.733459,210.613327
	C236.041046,208.512024 234.922684,210.109818 233.440491,211.988708
M259.482727,209.555389
	C256.401978,211.361008 254.925446,214.366730 252.860031,217.881058
	C257.376984,217.833450 261.200684,218.550705 265.297974,217.274948
	C264.046295,214.073334 262.057312,211.914902 259.482727,209.555389
M249.650742,206.874588
	C247.105850,206.853928 244.509064,206.031021 241.671356,207.213150
	C243.312119,210.611984 245.416016,213.193024 248.197479,215.620819
	C250.620453,212.885468 253.008896,210.559418 254.248337,206.896469
	C252.622696,206.896469 251.480652,206.896469 249.650742,206.874588
M250.999222,276.456421
	C251.990845,274.890656 253.975021,273.804596 253.473358,271.260803
	C249.596252,271.134552 245.801147,270.154297 241.195480,271.030762
	C243.583832,274.217926 244.982254,277.326385 248.498718,279.948364
	C249.261047,278.839935 249.909058,277.897705 250.999222,276.456421
M276.065186,209.851578
	C276.529846,208.867447 277.635284,207.351761 275.736145,207.199554
	C272.266357,206.921494 268.715729,205.829529 264.548767,207.232895
	C266.933472,210.262177 268.372894,213.383270 271.836395,215.537598
	C273.187653,213.763321 274.461304,212.090973 276.065186,209.851578
M241.740219,248.950714
	C240.474472,245.906570 238.638962,243.336914 235.728317,241.374374
	C233.335220,244.049042 231.025192,246.440247 229.692871,250.217087
	C233.982315,249.678482 237.753815,250.673248 241.740219,248.950714
M296.288757,239.054153
	C294.044403,239.315536 291.697021,238.563187 289.109680,239.824799
	C290.975372,242.647858 292.389252,245.569366 295.593506,247.324631
	C298.081055,245.271454 299.948395,242.926407 301.153259,240.136642
	C299.772980,238.773544 298.374542,239.209885 296.288757,239.054153
M292.173065,212.332489
	C293.167511,213.389267 293.759705,214.895767 295.652954,215.308090
	C297.744873,213.062088 300.414642,211.120316 300.862396,207.256729
	C296.748199,207.074265 292.946259,206.502228 288.766479,207.274261
	C289.970612,209.070496 290.883514,210.432297 292.173065,212.332489
M229.478653,239.580704
	C225.765198,238.758011 222.068344,238.873215 217.535141,239.579132
	C219.764755,242.672653 220.875748,245.768402 224.093201,247.638306
	C226.553009,245.440704 228.485870,243.066437 229.478653,239.580704
M243.137375,239.249100
	C242.113907,243.570114 246.040237,244.857468 247.888031,247.785248
	C250.691437,245.352676 252.574860,242.875061 253.964859,239.701462
	C250.329788,238.687317 247.055161,239.212341 243.137375,239.249100
M267.856689,243.617706
	C268.962402,244.965515 269.656219,246.781265 271.922180,247.120193
	C274.016876,245.028351 276.260162,242.998718 277.253662,239.628967
	C273.194946,238.888382 269.594421,238.670120 266.079529,239.655350
	C265.855988,241.378098 267.040070,242.038620 267.856689,243.617706
M236.880173,262.894958
	C238.769699,260.704865 240.806854,258.608765 241.976913,255.507050
	C237.826721,254.796432 234.173004,254.947800 229.916458,255.456741
	C232.010742,258.590942 233.084564,261.727783 236.880173,262.894958
M284.303375,254.983444
	C282.101685,254.983444 279.899963,254.983444 277.059845,254.983444
	C279.159973,258.592804 280.331482,261.667938 283.628510,263.251617
	C286.008942,260.971283 287.947449,258.697144 288.850677,255.341156
	C287.339355,255.196609 286.208649,255.088470 284.303375,254.983444
M258.848572,262.888916
	C262.467957,261.899628 263.410095,258.736755 265.067871,255.641113
	C260.891327,254.494858 257.081696,255.316864 252.600494,254.787231
	C254.844955,257.837524 256.587677,260.205933 258.848572,262.888916
M234.966568,191.212799
	C233.408875,191.762787 231.498764,192.266098 231.954224,194.382095
	C232.335754,196.154602 233.672516,197.647781 235.422607,198.300537
	C237.198273,198.962814 238.132172,197.381668 238.914658,196.216843
	C240.040436,194.540985 242.014420,193.287842 242.091461,190.906525
	C239.771408,189.917191 237.721909,190.432175 234.966568,191.212799
M217.784653,224.573257
	C218.726822,221.335403 216.115173,222.399445 214.830597,222.336441
	C212.753052,222.234512 210.363541,221.755142 209.232101,224.413605
	C208.333145,226.525787 208.739395,228.421356 210.486603,229.807907
	C212.603821,231.488098 213.785294,229.671997 214.963181,228.280304
	C215.823212,227.264145 216.604996,226.181747 217.784653,224.573257
M282.711609,190.712051
	C280.966400,190.489014 279.140533,189.680618 277.403442,191.573669
	C279.207764,194.169449 279.853760,198.014160 283.709747,198.341705
	C285.382080,198.483765 286.881592,196.306686 287.221710,194.539795
	C287.745239,191.820129 285.328613,191.484085 282.711609,190.712051
M303.856232,227.641129
	C305.146027,228.922791 305.940887,231.596756 308.417206,230.048828
	C310.338318,228.847931 311.367798,226.689163 310.047272,224.486969
	C307.969910,221.022766 304.864349,222.160599 301.768433,222.825546
	C301.662994,224.732315 302.688873,225.849304 303.856232,227.641129
M211.052185,250.261124
	C213.286316,250.077576 215.614410,250.467773 218.057297,249.278625
	C216.429596,246.145218 214.754715,243.457169 211.908890,241.440613
	C208.983978,244.113770 207.347031,246.669510 211.052185,250.261124
M309.964417,245.854660
	C309.671814,244.057617 309.347748,242.282532 306.933136,241.697174
	C304.745361,243.743622 302.673431,245.902054 301.779938,248.984726
	C307.246277,250.833008 308.328949,250.502014 309.964417,245.854660
M284.730560,277.700684
	C285.981873,275.583130 285.217255,274.380768 282.893219,273.606384
	C280.735596,276.314484 277.978424,278.426453 276.976624,282.063202
	C280.772278,282.854431 283.948425,283.173828 284.730560,277.700684
M240.040863,282.544525
	C241.882034,282.513641 242.691559,281.499573 241.600067,280.026733
	C239.897766,277.729706 238.719849,274.823120 235.720322,273.650909
	C233.322235,278.255768 234.502991,280.956757 240.040863,282.544525
M290.576233,202.575745
	C292.958801,202.907120 295.337067,203.187637 297.988464,202.126541
	C296.749634,199.574966 295.227203,197.421402 292.599335,197.823959
	C290.955200,198.075836 289.123535,199.709885 290.576233,202.575745
M222.202194,202.337418
	C224.716324,203.042847 227.207031,203.536148 229.499756,201.754242
	C229.271179,199.539154 228.261002,197.738525 226.322708,197.769821
	C224.098251,197.805725 222.673965,199.634537 222.202194,202.337418
M212.131409,257.581238
	C212.688049,258.684906 212.936569,260.587891 214.569382,260.006805
	C216.384903,259.360718 217.544067,257.711884 217.703201,255.115814
	C215.544724,255.735321 213.034195,253.629257 212.131409,257.581238
M212.005737,216.085663
	C213.371613,219.558350 215.649948,217.743973 217.942490,217.444901
	C217.250046,215.091995 216.233124,213.558777 214.307053,212.812164
	C212.909866,213.259659 212.822296,214.572235 212.005737,216.085663
M255.483124,287.890991
	C258.488892,287.890991 261.494629,287.890991 264.500397,287.890991
	C264.498108,287.474609 264.495819,287.058228 264.493561,286.641846
	C261.067749,285.962036 257.517487,285.985718 254.118881,286.576233
	C252.762665,286.811859 254.177155,287.547089 255.483124,287.890991
M304.530182,254.980469
	C303.581848,255.061569 302.090210,254.835571 302.075439,255.982040
	C302.048920,258.045807 303.284424,259.514435 306.118988,260.414398
	C305.946899,258.305542 309.683594,256.474518 304.530182,254.980469
M306.562042,214.273941
	C302.447845,211.336349 303.010925,215.447464 301.111084,217.712509
	C304.102509,217.359436 307.532990,220.185211 306.562042,214.273941
z"/>
</svg>
