<?xml version="1.0" encoding="UTF-8"?>
<!-- Disney Trip Planner — favicon transparent background -->
<svg xmlns="http://www.w3.org/2000/svg" viewBox="18 63 476 354" width="64" height="64">
  <!-- No background — fully transparent -->
  <circle cx="90"  cy="135" r="72" fill="#f59e0b"/>
  <circle cx="422" cy="135" r="72" fill="#f59e0b"/>
  <rect x="90" y="155" width="332" height="262" rx="20" ry="20" fill="none" stroke="#f59e0b" stroke-width="18"/>
  <rect x="90"  y="155" width="332" height="62" rx="20" ry="20" fill="#f59e0b"/>
  <rect x="90"  y="197" width="332" height="20" fill="#f59e0b"/>
  <rect x="163" y="143" width="14" height="28" rx="7" fill="#fcd34d"/>
  <rect x="347" y="143" width="14" height="28" rx="7" fill="#fcd34d"/>
  <circle cx="106" cy="177" r="5" fill="#0a1628"/>
  <circle cx="156" cy="177" r="5" fill="#0a1628"/>
  <circle cx="206" cy="177" r="5" fill="#0a1628"/>
  <circle cx="256" cy="177" r="5" fill="#0a1628"/>
  <circle cx="306" cy="177" r="5" fill="#0a1628"/>
  <circle cx="356" cy="177" r="5" fill="#0a1628"/>
  <circle cx="406" cy="177" r="5" fill="#0a1628"/>

  <!-- Grid: cells shrunk to 30×30 (gap widens to 14px) — higher opacity for visibility -->
  <!-- col x: 106,150,194,238,282,326,370  row y: 233,277,321,365 -->
  <!-- Row 1 -->
  <rect x="106" y="233" width="30" height="30" rx="5" fill="#f59e0b" opacity="0.7"/>
  <rect x="150" y="233" width="30" height="30" rx="5" fill="#f59e0b" opacity="0.7"/>
  <rect x="194" y="233" width="30" height="30" rx="5" fill="#f59e0b"/>
  <rect x="238" y="233" width="30" height="30" rx="5" fill="#f59e0b"/>
  <rect x="282" y="233" width="30" height="30" rx="5" fill="#f59e0b"/>
  <rect x="326" y="233" width="30" height="30" rx="5" fill="#f59e0b"/>
  <rect x="370" y="233" width="30" height="30" rx="5" fill="#f59e0b" opacity="0.7"/>
  <!-- Row 2 -->
  <rect x="106" y="277" width="30" height="30" rx="5" fill="#f59e0b"/>
  <rect x="150" y="277" width="30" height="30" rx="5" fill="#f59e0b"/>
  <rect x="194" y="277" width="30" height="30" rx="5" fill="#f59e0b"/>
  <rect x="238" y="277" width="30" height="30" rx="5" fill="#f59e0b"/>
  <rect x="282" y="277" width="30" height="30" rx="5" fill="#f59e0b" opacity="0.7"/>
  <rect x="326" y="277" width="30" height="30" rx="5" fill="#f59e0b" opacity="0.7"/>
  <rect x="370" y="277" width="30" height="30" rx="5" fill="#f59e0b" opacity="0.7"/>
  <!-- Row 3 -->
  <rect x="106" y="321" width="30" height="30" rx="5" fill="#f59e0b" opacity="0.7"/>
  <rect x="150" y="321" width="30" height="30" rx="5" fill="#f59e0b" opacity="0.7"/>
  <rect x="194" y="321" width="30" height="30" rx="5" fill="#f59e0b" opacity="0.7"/>
  <rect x="238" y="321" width="30" height="30" rx="5" fill="#f59e0b" opacity="0.7"/>
  <rect x="282" y="321" width="30" height="30" rx="5" fill="#f59e0b" opacity="0.7"/>
  <rect x="326" y="321" width="30" height="30" rx="5" fill="#f59e0b" opacity="0.7"/>
  <rect x="370" y="321" width="30" height="30" rx="5" fill="#f59e0b" opacity="0.7"/>
  <!-- Row 4 -->
  <rect x="106" y="365" width="30" height="30" rx="5" fill="#f59e0b" opacity="0.7"/>
  <rect x="150" y="365" width="30" height="30" rx="5" fill="#f59e0b" opacity="0.7"/>
  <rect x="194" y="365" width="30" height="30" rx="5" fill="#f59e0b" opacity="0.7"/>
  <rect x="238" y="365" width="30" height="30" rx="5" fill="#f59e0b" opacity="0.7"/>
  <rect x="282" y="365" width="30" height="30" rx="5" fill="#f59e0b" opacity="0.7"/>
  <rect x="326" y="365" width="30" height="30" rx="5" fill="#f59e0b" opacity="0.7"/>
  <rect x="370" y="365" width="30" height="30" rx="5" fill="#f59e0b" opacity="0.7"/>
</svg>
