<svg version="1.0" xmlns="http://www.w3.org/2000/svg" viewBox="900 244 200 160" preserveAspectRatio="xMidYMid meet">
<g transform="translate(0,774) scale(0.1,-0.1)" fill="currentColor" stroke="none">
<path d="M9700 5085 c-7 -9 -39 -32 -71 -52 l-59 -36 0 -78 c0 -56 -4 -79 -12
-81 -7 -1 -40 -2 -73 -2 l-60 -1 0 -100 0 -100 -74 0 c-84 0 -77 -7 -122 113
-18 48 -36 81 -42 79 -7 -2 -28 -44 -48 -93 l-36 -89 -43 -5 -43 -5 -25 -75
-24 -74 32 -26 32 -26 -7 -116 c-8 -134 -8 -134 82 -119 29 4 57 5 64 0 9 -5
10 -33 6 -100 -4 -52 -10 -209 -13 -349 -4 -140 -10 -259 -15 -264 -5 -6 -49
-6 -116 1 -60 6 -111 9 -114 7 -4 -2 -9 -79 -13 -171 -4 -93 -11 -199 -16
-238 -5 -38 -12 -103 -15 -142 l-6 -73 866 0 867 0 -6 63 c-4 34 -11 107 -17
162 -6 55 -13 165 -17 245 l-7 145 -47 3 c-25 2 -77 -1 -115 -6 -37 -6 -71 -7
-74 -3 -4 3 -12 152 -18 331 -6 179 -14 334 -17 345 -3 11 1 27 8 37 11 14 22
15 73 8 37 -6 64 -5 71 1 8 7 10 45 7 133 l-6 123 32 11 c24 9 31 16 28 29 -3
10 -11 41 -17 70 -14 62 -30 78 -70 70 -38 -8 -52 6 -79 85 -13 35 -27 73 -32
86 -17 42 -35 24 -64 -64 -15 -47 -34 -92 -42 -100 -16 -16 -129 -20 -152 -5
-11 7 -12 28 -7 106 l7 98 -64 -6 c-83 -8 -89 -1 -80 85 l6 66 -44 27 c-24 16
-60 41 -80 56 -42 33 -61 36 -79 14z m48 -213 c-11 -13 -10 -14 15 -8 18 4 27
2 27 -5 0 -24 55 -98 77 -104 30 -7 30 -25 1 -25 -21 -1 -20 -4 14 -35 45 -42
37 -44 -32 -9 -48 24 -60 26 -138 21 -64 -3 -87 -9 -94 -21 -12 -22 -52 -22
-44 0 3 9 6 31 6 51 0 27 3 34 15 29 10 -3 29 13 57 50 40 53 85 87 101 77 4
-3 2 -12 -5 -21z m-223 -269 c-4 -10 -12 -42 -17 -71 -11 -55 2 -130 26 -155
6 -7 24 -29 40 -50 36 -48 26 -62 -35 -48 -68 16 -131 13 -204 -10 -37 -11
-77 -18 -90 -15 -45 11 -105 133 -105 213 0 33 16 71 35 85 15 11 73 10 77 -2
2 -5 34 -12 71 -14 53 -3 70 -1 74 11 3 8 12 12 19 9 8 -3 31 10 51 29 41 38
70 47 58 18z m275 -8 c48 -25 60 -52 60 -132 0 -87 3 -85 -145 -81 l-100 3 -3
87 c-3 84 -2 87 25 106 15 10 35 22 43 25 29 11 91 7 120 -8z m204 -33 c13 7
21 5 31 -9 11 -15 27 -18 87 -17 43 0 83 6 98 14 29 17 48 14 74 -8 30 -27 36
-57 25 -124 -12 -75 -49 -142 -90 -163 -27 -15 -33 -14 -77 6 -38 18 -66 22
-149 23 -56 1 -104 4 -108 7 -12 13 7 77 24 82 28 7 57 112 44 159 -11 41 -5
58 12 34 8 -10 16 -11 29 -4z m-446 -394 c16 -16 16 -152 -1 -166 -12 -10
-120 -18 -203 -14 l-41 2 -5 88 c-3 48 -3 90 -1 95 7 12 238 8 251 -5z m230
-430 l2 -438 -41 0 c-85 0 -79 -34 -79 444 0 232 3 426 7 430 4 4 30 6 58 4
l50 -3 3 -437z m361 428 c8 -9 11 -43 9 -93 l-3 -78 -110 -6 c-60 -3 -118 -2
-127 2 -13 7 -17 26 -20 86 -2 43 1 84 5 91 14 18 230 17 246 -2z m-592 -341
c19 -7 18 -149 -1 -164 -9 -8 -52 -11 -127 -9 l-114 3 -3 79 c-2 44 -1 84 1
90 5 11 216 12 244 1z m591 6 c10 -1 12 -23 10 -88 l-3 -88 -125 0 -125 0 -3
84 c-2 46 1 87 7 90 7 5 171 6 239 2z m-598 -341 c17 -10 27 -146 12 -168 -10
-15 -237 -23 -252 -8 -8 8 -4 144 6 174 4 15 210 17 234 2z m598 -2 c17 -17
16 -178 0 -179 -7 0 -64 -1 -127 -1 -120 0 -136 6 -126 47 2 11 5 46 5 77 l0
57 108 4 c59 1 112 4 118 5 5 1 15 -3 22 -10z m-953 -137 c7 -25 107 -116 148
-138 46 -24 157 -20 207 6 49 25 97 27 145 4 31 -15 38 -15 61 -2 40 21 143
19 155 -3 15 -27 165 -25 219 2 22 11 40 25 40 30 0 6 9 10 20 10 11 0 20 7
20 15 0 7 6 18 13 22 7 4 23 23 36 41 17 25 30 32 54 32 42 0 95 -33 107 -68
6 -15 15 -35 20 -44 6 -10 10 -58 10 -107 0 -81 -3 -93 -24 -118 l-24 -28
-656 -3 -656 -3 -35 28 -35 28 3 112 c3 84 8 118 21 138 38 58 137 88 151 46z"/>
</g>
</svg>
