<svg version="1.1" xmlns="http://www.w3.org/2000/svg" viewBox="545 162 108 140">
<path fill="#000000" opacity="1.000000" stroke="none"
	d="
M609.177002,172.271744
	C608.891357,176.033798 609.789856,178.213013 613.782410,177.921143
	C616.963684,177.688599 617.306091,179.810822 617.658325,182.447296
	C618.033386,185.254562 616.433655,189.454102 620.944946,190.282852
	C625.548401,191.128510 627.267273,187.631805 628.704895,184.066010
	C629.364685,182.429398 629.697632,180.522110 631.489807,179.565308
	C634.197205,180.623199 634.210266,183.327652 635.290466,185.275650
	C636.738159,187.886520 637.622314,190.608154 641.495667,190.902191
	C643.974976,191.090393 646.885681,199.453796 644.949463,201.147247
	C641.151733,204.468765 642.503723,208.515732 642.492493,212.286392
	C642.479919,216.491745 642.066223,219.655365 636.691711,219.140366
	C634.104187,218.892410 633.149170,220.491180 633.255371,222.894150
	C633.747803,234.039185 634.274231,245.182907 634.708374,256.330231
	C634.839050,259.684845 636.365356,261.146637 639.731873,260.879456
	C641.552673,260.734955 643.396362,260.904907 645.228760,260.873566
	C647.888794,260.828094 649.140442,262.072266 649.321350,264.755615
	C650.026611,275.216736 650.744812,285.678467 651.637573,296.124664
	C651.923523,299.470276 650.230530,300.159363 647.505920,300.152832
	C640.840149,300.136932 634.174194,300.157501 627.508362,300.158905
	C602.177795,300.164215 576.847290,300.178253 551.516724,300.164825
	C544.913452,300.161316 544.764832,299.745117 545.297302,293.356842
	C546.043884,284.399689 546.575073,275.418976 546.934998,266.437744
	C547.102722,262.252045 548.628052,260.167877 553.004272,260.824249
	C553.493958,260.897675 554.002686,260.847870 554.502625,260.848541
	C561.896790,260.858307 561.537720,260.834290 562.029236,253.398727
	C562.656006,243.917343 562.645813,234.435028 562.974609,224.955444
	C563.106018,221.165939 562.488220,218.781006 557.979492,219.032593
	C554.642151,219.218826 553.979675,216.921677 553.858887,214.070709
	C553.667358,209.549881 554.397888,205.128937 551.618286,200.644958
	C550.003357,198.039749 551.882019,192.514862 554.634949,191.495758
	C559.409912,189.728149 560.472656,186.026459 562.339539,182.457230
	C562.873169,181.437027 563.236023,180.278702 564.692017,179.676453
	C567.637146,180.825241 567.784485,184.047867 568.993530,186.407425
	C570.414368,189.180405 572.290222,190.412247 575.364563,189.924866
	C578.905762,189.363510 578.753113,186.611969 578.602051,184.162643
	C578.342957,179.962570 579.377319,177.390045 584.303101,177.732590
	C586.869263,177.911057 587.434570,175.875900 587.630798,173.658066
	C588.038635,169.049057 593.777039,162.861359 597.824097,162.498398
	C600.516113,162.256958 607.848755,168.312622 609.177002,172.271744
M600.810242,248.499878
	C600.804749,240.668320 600.832031,232.836487 600.768250,225.005402
	C600.754272,223.284378 601.286316,220.926468 598.572266,220.754211
	C595.989990,220.590317 595.251709,222.374603 595.256836,224.705826
	C595.288147,239.035721 595.272827,253.365723 595.286438,267.695679
	C595.288269,269.675873 595.699951,271.539490 598.183350,271.498810
	C600.818542,271.455627 600.764954,269.332642 600.778931,267.495422
	C600.824524,261.497131 600.804138,255.498367 600.810242,248.499878
M603.315186,204.952042
	C605.594971,202.952896 605.193420,200.272385 604.385254,198.037033
	C603.012878,194.240982 599.626343,193.642212 596.117615,194.420303
	C592.712463,195.175415 591.275024,197.562531 591.504028,201.069382
	C591.766235,205.083298 594.193665,205.979691 597.643799,205.647308
	C599.287476,205.488968 600.940002,205.423401 603.315186,204.952042
M612.173279,271.658722
	C614.657104,271.669708 617.141174,271.709381 619.624573,271.682190
	C621.440674,271.662292 622.985779,270.989349 623.329346,269.054779
	C623.711060,266.905518 623.763062,264.534332 621.798950,263.135193
	C619.809082,261.717651 617.286560,262.430847 615.007202,262.421417
	C613.154907,262.413757 610.496155,261.534790 609.854675,264.075043
	C609.223083,266.575806 607.960999,269.660187 612.173279,271.658722
M623.523682,244.546432
	C622.104553,241.377258 612.005310,239.888062 610.007812,242.590500
	C609.644470,243.082047 609.500183,243.807968 609.444824,244.442291
	C609.180603,247.466385 609.519287,250.007355 613.340088,250.645691
	C620.401794,251.825439 622.467163,250.832916 623.523682,244.546432
M580.444153,271.788361
	C583.981995,271.933716 587.056641,271.864471 586.945801,266.810638
	C586.840698,262.021545 583.844238,262.030640 580.559326,262.212372
	C577.340576,262.390472 573.344238,260.991608 573.167297,266.765015
	C573.010925,271.866821 576.045410,271.901062 580.444153,271.788361
M623.409180,224.639542
	C623.173523,222.246750 622.331116,220.348541 619.504272,220.442444
	C616.254517,220.550400 612.756836,219.563980 610.023071,222.237930
	C609.607422,222.644516 609.408813,223.458542 609.417236,224.079956
	C609.447449,226.316284 608.734070,228.903687 612.050293,229.689056
	C617.687805,231.024216 622.127441,229.391571 623.409180,224.639542
M585.390686,242.005325
	C582.503784,240.878922 579.503784,241.475998 576.548950,241.451263
	C574.892944,241.437378 573.523621,242.109360 573.412781,243.931885
	C573.286072,246.014496 572.338440,248.835571 574.495789,249.906662
	C577.799622,251.546967 581.834473,251.564697 585.054932,249.971146
	C588.104431,248.462189 587.106628,245.213058 585.390686,242.005325
M585.457947,229.152145
	C587.543396,226.885086 587.613342,224.040268 586.086121,221.875626
	C584.229736,219.244400 580.905151,220.507217 578.191772,220.436234
	C574.854797,220.348969 573.084900,221.749802 573.176575,225.504166
	C573.267456,229.223038 575.310181,229.945908 578.295532,229.850189
	C580.434265,229.781631 582.570251,229.627457 585.457947,229.152145
z"/>
</svg>
