<svg version="1.0" xmlns="http://www.w3.org/2000/svg" viewBox="53 214 207 180" preserveAspectRatio="xMidYMid meet">
<g transform="translate(0,774) scale(0.1,-0.1)" fill="currentColor" stroke="none">
<path d="M1631 5467 c-13 -13 -14 -96 -2 -116 8 -12 24 -10 107 12 53 14 102
31 107 36 13 13 -36 37 -93 46 -25 4 -59 13 -76 20 -23 10 -35 10 -43 2z"/>
<path d="M1610 5266 c-5 -15 -19 -60 -30 -99 -10 -40 -31 -108 -45 -152 -58
-172 -56 -161 -34 -189 15 -19 19 -40 19 -101 0 -68 3 -81 25 -107 26 -30 31
-62 16 -87 -7 -11 -25 -12 -84 -7 -55 5 -77 3 -84 -6 -5 -7 -29 -72 -52 -145
-51 -156 -74 -177 -107 -96 -8 19 -20 33 -27 31 -14 -5 -75 -125 -76 -149 -1
-9 6 -22 14 -29 11 -9 15 -35 15 -104 0 -80 3 -96 24 -126 17 -26 25 -56 31
-113 7 -82 -1 -107 -35 -107 -28 0 -41 24 -51 92 -18 132 -48 281 -58 291 -7
7 -13 3 -20 -14 -13 -30 -51 -250 -51 -294 0 -40 -29 -79 -51 -70 -9 3 -23 27
-32 53 -16 49 -77 217 -96 265 -11 28 -25 35 -36 17 -4 -6 -17 -54 -31 -108
-60 -241 -79 -297 -99 -300 -40 -8 -45 -21 -45 -113 0 -83 2 -91 25 -111 24
-21 25 -26 25 -149 0 -142 6 -125 -101 -294 -29 -46 -36 -62 -26 -70 8 -6 161
-9 435 -7 l422 3 0 125 c0 143 7 164 71 215 36 28 49 32 103 33 75 1 116 -18
165 -78 l33 -41 -4 -123 c-3 -67 -2 -125 2 -127 4 -2 198 -5 431 -5 363 -2
424 0 427 13 2 8 -15 41 -36 73 -21 32 -55 89 -75 125 -36 64 -37 69 -37 168
0 100 1 104 28 130 26 24 29 34 34 111 3 47 3 91 1 98 -3 6 -19 12 -38 12 -46
0 -60 20 -35 52 l19 25 -36 89 c-34 86 -51 111 -63 96 -4 -4 -23 -46 -43 -94
-36 -85 -37 -87 -20 -116 24 -43 6 -62 -58 -62 -58 0 -48 -18 -121 210 -36
111 -58 165 -67 165 -10 0 -23 -33 -42 -104 -26 -99 -38 -121 -68 -121 -12 0
-13 21 -8 123 5 108 8 124 27 136 28 19 25 36 -14 117 -45 91 -59 151 -54 225
4 50 9 65 28 79 23 17 24 22 14 57 -6 21 -23 79 -37 128 -15 50 -31 109 -37
133 -18 71 -34 52 -70 -80 -57 -216 -57 -216 -32 -234 18 -12 22 -25 22 -69 0
-65 -7 -85 -30 -85 -25 0 -34 15 -58 102 -31 106 -32 195 -4 242 18 30 22 53
22 120 0 75 2 85 22 98 l22 15 -41 129 c-23 71 -51 165 -63 209 -11 44 -27 86
-35 94 -12 13 -16 11 -25 -13z m-18 -870 c-2 -9 4 -16 11 -16 8 0 17 -8 21
-17 14 -42 55 -98 70 -95 8 1 23 -9 32 -23 9 -14 24 -25 34 -25 9 0 24 -8 32
-17 26 -31 58 -150 58 -216 0 -147 53 -245 161 -300 24 -12 58 -41 76 -65 53
-70 117 -113 172 -115 25 -1 58 1 73 6 24 6 29 3 43 -23 14 -27 14 -36 -1
-102 -16 -71 -16 -262 1 -314 4 -13 -1 -29 -13 -45 l-20 -24 -200 0 c-198 0
-201 0 -226 24 -14 14 -26 29 -26 34 0 6 -6 18 -13 26 -8 9 -19 36 -26 60 -7
24 -26 57 -42 73 -16 16 -29 33 -29 38 0 12 -90 66 -134 80 -58 19 -161 5
-211 -27 -80 -51 -132 -123 -176 -242 -24 -63 -51 -71 -254 -71 -246 1 -229
-13 -231 187 -1 98 -7 181 -16 219 -12 52 -12 70 0 122 7 34 18 62 23 62 5 0
9 6 9 14 0 7 11 25 25 40 23 25 26 26 49 11 13 -9 27 -12 30 -7 9 15 56 1 56
-16 0 -12 4 -12 21 4 11 10 42 24 67 30 40 11 51 10 72 -4 14 -9 36 -15 50
-13 37 5 80 29 80 46 0 8 8 15 18 15 26 0 49 105 33 152 -15 46 -17 185 -3
233 7 25 33 62 67 98 30 32 55 60 55 62 0 10 61 92 82 111 28 26 79 53 93 49
6 -1 9 -9 7 -19z"/>
<path d="M797 4213 c-11 -10 -8 -121 3 -128 9 -5 95 17 198 51 32 10 -1 30
-89 56 -105 31 -103 30 -112 21z"/>
<path d="M2378 4033 c-2 -10 -2 -39 0 -65 5 -55 3 -55 106 -32 157 36 160 46
26 85 -113 33 -126 34 -132 12z"/>
<path d="M1857 4963 c-4 -3 -7 -30 -7 -60 0 -65 11 -71 77 -49 25 9 57 16 69
16 12 0 32 8 44 18 30 24 16 34 -81 61 -82 23 -92 24 -102 14z"/>
</g>
</svg>
