<svg version="1.1" xmlns="http://www.w3.org/2000/svg" viewBox="33 140 130 162">
<path fill="#000000" opacity="1.000000" stroke="none"
	d="
M40.873589,281.545959
	C40.633816,276.211914 40.912273,271.514740 38.792423,266.573761
	C36.944668,262.266937 36.705898,257.037872 41.199780,252.370148
	C44.923588,248.502350 44.750229,242.140854 46.610249,236.985611
	C47.651188,234.100510 47.855453,230.864502 50.196350,227.977722
	C55.170582,233.358292 55.486572,240.775284 60.017582,246.498962
	C63.602554,239.727798 62.375988,231.880188 66.567291,224.926514
	C70.908852,231.986145 69.798058,239.814682 73.150864,246.484024
	C74.474434,244.711624 74.450645,242.802948 73.949677,241.483597
	C71.848343,235.949570 72.013115,230.160889 71.270340,224.452728
	C70.489754,218.454041 70.637390,216.075119 74.928833,211.174133
	C76.955658,210.583923 77.479919,213.156006 79.554230,213.244537
	C81.926140,210.209442 83.192055,206.437180 84.328537,202.712524
	C85.491486,198.901199 87.261589,196.558716 91.662262,196.914627
	C95.377258,197.215073 95.700890,195.782410 94.939461,192.043686
	C93.403503,184.501923 90.588867,176.920013 94.181412,168.949326
	C96.737251,163.278763 98.275421,157.149490 100.222374,151.359940
	C102.664803,151.567291 102.868843,153.042419 103.266182,154.237045
	C104.632774,158.345840 105.474785,162.695129 107.330940,166.561935
	C111.783348,175.837418 108.935547,184.797043 106.764961,193.791687
	C105.431900,199.315735 106.743500,204.275894 108.843231,209.119385
	C109.821198,209.373245 109.992638,208.661758 109.844841,208.337601
	C105.353874,198.488220 112.684982,190.755310 113.899765,181.983459
	C116.601784,182.092361 116.598175,183.922882 117.033478,185.204727
	C118.478088,189.458679 119.767586,193.765137 121.133026,198.046204
	C122.007423,200.787720 122.040077,203.099792 120.648483,206.061966
	C118.178314,211.319977 119.866768,216.842087 122.218941,221.956787
	C123.805557,225.406784 125.597107,228.472748 122.874214,232.521500
	C121.426041,234.674835 122.142982,238.001770 123.054512,241.140106
	C125.617050,238.359726 125.430168,234.481430 127.782158,231.665848
	C130.205261,232.646515 130.531876,234.903534 131.243576,236.813583
	C132.929504,241.338303 134.600845,245.871643 136.123688,250.452805
	C137.131561,253.484848 138.957214,254.282608 142.044922,253.101700
	C141.075638,247.118683 144.777725,242.945618 146.967163,238.457199
	C149.249573,238.462311 149.640594,239.725861 150.017654,240.749969
	C151.465103,244.681183 154.788025,248.109467 153.368393,252.834702
	C158.750000,254.797562 157.108627,259.404236 157.273102,263.304077
	C157.335999,264.795319 157.226578,266.266113 156.344589,267.619415
	C152.402420,273.668152 153.533585,279.952820 155.841309,286.128235
	C157.496292,290.556885 161.070557,294.149292 162.026840,298.716370
	C160.411591,300.636810 158.634872,300.170624 157.044205,300.174133
	C142.712219,300.205627 128.378296,300.052826 114.049141,300.253876
	C109.434631,300.318604 107.639412,298.642670 108.064247,294.103851
	C108.280342,291.795166 108.129959,289.436096 107.971413,287.111633
	C107.594215,281.581573 103.360695,277.579071 97.855759,277.425415
	C92.683136,277.281036 87.849113,281.478729 87.352745,286.854523
	C87.062645,289.996552 87.199631,293.181824 87.217926,296.347260
	C87.231979,298.780365 86.181488,300.133392 83.673561,300.133545
	C67.676674,300.134552 51.679760,300.134155 35.682980,300.089294
	C35.090641,300.087616 34.499599,299.621063 33.489204,299.194244
	C34.898155,292.922180 40.187450,288.379425 40.873589,281.545959
z"/>
<path fill="#000000" opacity="1.000000" stroke="none"
	d="
M158.822449,229.763489
	C161.670151,231.579605 160.246552,232.523407 158.440964,233.150085
	C156.423080,233.850449 154.340912,234.387985 152.257553,234.870453
	C150.573029,235.260529 148.507263,236.436600 147.355270,234.329254
	C146.310928,232.418854 146.336243,230.009567 147.450897,228.142044
	C148.636856,226.155075 150.651001,227.134247 152.368301,227.675766
	C154.408997,228.319290 156.443039,228.983902 158.822449,229.763489
z"/>
<path fill="#000000" opacity="1.000000" stroke="none"
	d="
M126.570831,174.302887
	C124.380234,178.404877 120.121246,177.965866 116.675774,178.685547
	C114.084724,179.226776 114.322083,176.076324 114.298378,174.206223
	C114.271210,172.062744 114.836395,170.055893 117.717247,170.703354
	C120.757790,171.386688 123.889694,171.898331 126.570831,174.302887
z"/>
<path fill="#000000" opacity="1.000000" stroke="none"
	d="
M101.022285,146.976990
	C100.411858,139.414246 100.644028,139.180725 107.725555,140.979660
	C109.832291,141.514832 112.374123,141.428955 113.907822,144.628311
	C109.562897,145.821091 106.064079,149.152542 101.022285,146.976990
z"/>
<path fill="#000000" opacity="1.000000" stroke="none"
	d="
M61.236767,222.594330
	C58.858688,223.399994 56.828991,224.081558 54.773815,224.674927
	C53.214279,225.125214 51.330887,225.934723 50.278893,224.184326
	C49.143055,222.294434 49.183926,219.921814 50.225388,218.015060
	C51.237560,216.161911 53.128941,217.069931 54.678761,217.524536
	C56.886639,218.172165 59.115364,218.785477 61.253277,219.622620
	C62.817593,220.235168 63.336983,221.282639 61.236767,222.594330
z"/>
</svg>
